<svg width="11" height="13" viewBox="0 0 11 13" fill="none" xmlns="http://www.w3.org/2000/svg">
<path fill-rule="evenodd" clip-rule="evenodd" d="M3.60472 0C3.35059 0 3.14454 0.206027 3.14454 0.460177V1.07375H0.460177C0.206046 1.07375 0 1.27977 0 1.53392V2.0708H10.8909V1.53392C10.8909 1.27977 10.6848 1.07375 10.4307 1.07375H7.74631V0.460177C7.74631 0.206027 7.54027 0 7.28614 0H3.60472ZM9.87268 3.14454H1.0354C1.3294 5.88004 1.93274 11.5121 1.9941 12.1563C2.05546 12.8006 2.76106 12.9872 3.10619 13H7.93805C8.64366 13 8.89676 12.3097 8.9351 11.9646L9.87268 3.14454ZM4.90856 4.67847C4.90856 4.38196 5.14893 4.14159 5.44543 4.14159C5.74194 4.14159 5.98231 4.38196 5.98231 4.67847V11.5044C5.98231 11.8009 5.74194 12.0413 5.44543 12.0413C5.14893 12.0413 4.90856 11.8009 4.90856 11.5044V4.67847ZM2.34301 4.76105C2.31975 4.46546 2.54052 4.20698 2.83611 4.18371C3.1317 4.16045 3.39019 4.38122 3.41345 4.67681L3.94901 11.4817C3.97227 11.7773 3.7515 12.0358 3.45591 12.0591C3.16032 12.0823 2.90183 11.8616 2.87857 11.566L2.34301 4.76105ZM8.05766 4.18372C7.76207 4.16045 7.50359 4.38122 7.48032 4.67681L6.94476 11.4817C6.9215 11.7773 7.14227 12.0358 7.43786 12.0591C7.73345 12.0823 7.99194 11.8616 8.0152 11.566L8.55076 4.76106C8.57402 4.46546 8.35326 4.20698 8.05766 4.18372Z" fill="#C7C8CA"/>
</svg>
