<svg width="12" height="12" viewBox="0 0 12 12" fill="none" xmlns="http://www.w3.org/2000/svg">
<path fill-rule="evenodd" clip-rule="evenodd" d="M12 6C12 9.31371 9.31371 12 6 12C2.68629 12 0 9.31371 0 6C0 2.68629 2.68629 0 6 0C9.31371 0 12 2.68629 12 6ZM10.9756 6C10.9756 8.74795 8.74795 10.9756 6 10.9756C3.25205 10.9756 1.02439 8.74795 1.02439 6C1.02439 3.25205 3.25205 1.02439 6 1.02439C8.74795 1.02439 10.9756 3.25205 10.9756 6ZM5.5122 3.5122C5.5122 3.24279 5.73059 3.02439 6 3.02439C6.26941 3.02439 6.4878 3.24279 6.4878 3.5122V5.5122H8.4878C8.75721 5.5122 8.97561 5.73059 8.97561 6C8.97561 6.26941 8.75721 6.4878 8.4878 6.4878H6.4878V8.4878C6.4878 8.75721 6.26941 8.97561 6 8.97561C5.73059 8.97561 5.5122 8.75721 5.5122 8.4878V6.4878H3.5122C3.24279 6.4878 3.02439 6.26941 3.02439 6C3.02439 5.73059 3.24279 5.5122 3.5122 5.5122H5.5122V3.5122Z" fill="#5D7D2B"/>
</svg>
